# xmcd
#
# Track frame offsets:
#	150
#	25920
#	46080
#	91239
#	156319
#	180487
#	215194
#	240177
#	307743
#
# Disc length: 4458 seconds
#
# Revision: 0
# Processed by: cddbd v1.5.2PL0 Copyright (c) Steve Scherf et al.
# Submitted via: EZCDAudioConverter 2.1.7.1
#
DISCID=65116809
DTITLE=Pat Thomas - Coming Home 2/2
DYEAR=1900
DGENRE=
TTITLE0=Pat Thomas and Ebo Taylor - Ma Huno
TTITLE1=Pat Thomas - Gyae Su (1)
TTITLE2=Pat Thomas - Yamona
TTITLE3=Pat Thomas - Mewo Akoma
TTITLE4=Pat Thomas - Gyae Su (2)
TTITLE5=Pat Thomas and Marijata - I Need More
TTITLE6=Super Sounds Namba - Who's Free
TTITLE7=Pat Thomas - Mpaebo
TTITLE8=Pat Thomas - Can't You See
EXTD=
EXTT0=
EXTT1=
EXTT2=
EXTT3=
EXTT4=
EXTT5=
EXTT6=
EXTT7=
EXTT8=
PLAYORDER=
